<svg width="1012" height="92" viewBox="0 0 1012 92" fill="none" xmlns="http://www.w3.org/2000/svg">
<path d="M971.091 3V68.4H1011.65V90H946.011V3H971.091Z" fill="#3C3C3C"/>
<path d="M848.197 90L879.757 3H907.237L938.797 90H911.557L907.117 75.48H879.397L874.957 90H848.197ZM893.437 30.6L885.277 56.76H901.357L893.437 30.6Z" fill="#3C3C3C"/>
<path d="M823.058 46.44C823.058 26.64 813.218 23.28 799.418 23.28H794.138V69.72H799.418C813.218 69.72 823.058 66.24 823.058 46.44ZM769.058 3H799.058C827.018 3 849.218 13.44 849.218 46.44C849.218 79.56 827.018 90 799.058 90H769.058V3Z" fill="#3C3C3C"/>
<path d="M753.607 90H722.647L696.007 34.56V90H672.847V3H703.687L730.447 58.32V3H753.607V90Z" fill="#3C3C3C"/>
<path d="M597.282 46.32C597.282 63.48 606.762 70.56 616.842 70.56C626.922 70.56 636.402 63.48 636.402 46.32C636.402 29.16 626.922 21.96 616.842 21.96C606.762 21.96 597.282 29.16 597.282 46.32ZM662.442 46.32C662.442 75 643.482 91.56 616.842 91.56C590.202 91.56 571.242 75 571.242 46.32C571.242 17.64 590.202 0.959991 616.842 0.959991C643.482 0.959991 662.442 17.64 662.442 46.32Z" fill="#3C3C3C"/>
<path d="M478.195 46.2C478.195 18 494.995 0.959991 522.115 0.959991C544.435 0.959991 561.355 13.8 564.835 35.76H540.115C538.315 27.24 532.075 21.96 522.955 21.96C512.035 21.96 504.355 30 504.355 46.2C504.355 62.52 512.035 70.56 522.955 70.56C532.075 70.56 538.675 64.92 540.475 56.64H565.075C561.595 78.72 544.555 91.56 522.115 91.56C494.995 91.56 478.195 74.52 478.195 46.2Z" fill="#3C3C3C"/>
<path d="M397.895 90V24.48H371.975V3H449.015V24.48H422.975V90H397.895Z" fill="#3C3C3C"/>
<path d="M290.384 90L321.944 3H349.424L380.984 90H353.744L349.304 75.48H321.584L317.144 90H290.384ZM335.624 30.6L327.464 56.76H343.544L335.624 30.6Z" fill="#3C3C3C"/>
<path d="M248.129 90V24.48H222.209V3H299.249V24.48H273.209V90H248.129Z" fill="#3C3C3C"/>
<path d="M136.683 3H161.763V54C161.763 65.04 165.123 70.56 175.923 70.56C186.603 70.56 190.083 64.2 190.083 54V3H215.163V51.48C215.163 78.6 204.603 91.56 176.163 91.56C148.803 91.56 136.683 81.24 136.683 52.32V3Z" fill="#3C3C3C"/>
<path d="M122.419 3V90H97.3391V3H122.419Z" fill="#3C3C3C"/>
<path d="M0.0697021 46.2C0.0697021 18 16.8697 0.959991 43.9897 0.959991C66.3097 0.959991 83.2297 13.8 86.7097 35.76H61.9897C60.1897 27.24 53.9497 21.96 44.8297 21.96C33.9097 21.96 26.2297 30 26.2297 46.2C26.2297 62.52 33.9097 70.56 44.8297 70.56C53.9497 70.56 60.5497 64.92 62.3497 56.64H86.9497C83.4697 78.72 66.4297 91.56 43.9897 91.56C16.8697 91.56 0.0697021 74.52 0.0697021 46.2Z" fill="#3C3C3C"/>
</svg>
