<svg width="99" height="19" viewBox="0 0 99 19" fill="none" xmlns="http://www.w3.org/2000/svg">
    <rect width="98.5134" height="18.7656" rx="4" fill="#1D1D1B"/>
    <path d="M88.3416 12.7285H92.5134V13.6484H87.2576V5.11719H88.3416V12.7285Z" fill="#F5F5F5"/>
    <path d="M84.4622 11.4395H81.6145L80.929 13.6484H79.845L82.5989 5.11719H83.5071L86.2141 13.6484H85.136L84.4622 11.4395ZM81.9075 10.4961H84.175L83.05 6.79297L81.9075 10.4961Z" fill="#F5F5F5"/>
    <path d="M79.4167 6.04297H76.78V13.6484H75.7253V6.04297H73.0886V5.11719H79.4167V6.04297Z" fill="#F5F5F5"/>
    <path d="M68.1252 5.11719L69.5139 9.38281L71.0139 5.11719H72.3616V13.6484H71.3069V10.2441L71.3948 6.68164L69.8186 11.2754H69.1975L67.7502 6.80469L67.8381 10.2441V13.6484H66.7834V5.11719H68.1252Z" fill="#F5F5F5"/>
    <path d="M65.7576 9.875C65.7537 10.1797 65.7263 10.4883 65.6755 10.8008C65.6287 11.1094 65.5544 11.4082 65.4529 11.6973C65.3513 11.9863 65.2205 12.2559 65.0603 12.5059C64.9041 12.7559 64.7166 12.9746 64.4978 13.1621C64.2791 13.3496 64.0271 13.498 63.7419 13.6074C63.4607 13.7129 63.1443 13.7656 62.7927 13.7656C62.4412 13.7656 62.1228 13.7129 61.8376 13.6074C61.5564 13.498 61.3064 13.3496 61.0876 13.1621C60.8689 12.9746 60.6794 12.7559 60.5193 12.5059C60.3591 12.252 60.2283 11.9805 60.1267 11.6914C60.0212 11.4023 59.9431 11.1035 59.8923 10.7949C59.8416 10.4863 59.8142 10.1797 59.8103 9.875V8.90234C59.8142 8.59766 59.8396 8.29102 59.8865 7.98242C59.9373 7.66992 60.0154 7.36914 60.1208 7.08008C60.2224 6.79102 60.3513 6.52148 60.5076 6.27148C60.6677 6.01758 60.8572 5.79492 61.0759 5.60352C61.2947 5.41602 61.5447 5.26953 61.8259 5.16406C62.1111 5.05469 62.4294 5 62.781 5C63.1326 5 63.4509 5.05469 63.7361 5.16406C64.0212 5.26953 64.2732 5.41602 64.4919 5.60352C64.7107 5.79102 64.8982 6.01172 65.0544 6.26562C65.2146 6.51562 65.3474 6.78516 65.4529 7.07422C65.5544 7.36328 65.6287 7.66406 65.6755 7.97656C65.7263 8.28906 65.7537 8.59766 65.7576 8.90234V9.875ZM64.6853 8.89062C64.6814 8.6875 64.6677 8.47656 64.6443 8.25781C64.6208 8.03516 64.5818 7.81445 64.5271 7.5957C64.4685 7.38086 64.3923 7.17578 64.2986 6.98047C64.2048 6.78125 64.0876 6.60547 63.947 6.45312C63.8064 6.30469 63.6404 6.1875 63.449 6.10156C63.2576 6.01172 63.0349 5.9668 62.781 5.9668C62.531 5.9668 62.3103 6.01172 62.1189 6.10156C61.9275 6.19141 61.7615 6.31055 61.6208 6.45898C61.4802 6.61133 61.363 6.78711 61.2693 6.98633C61.1755 7.18164 61.1013 7.38672 61.0466 7.60156C60.988 7.82031 60.9451 8.04102 60.9177 8.26367C60.8943 8.48242 60.8806 8.69141 60.8767 8.89062V9.875C60.8806 10.0742 60.8943 10.2852 60.9177 10.5078C60.9451 10.7305 60.988 10.9492 61.0466 11.1641C61.1052 11.3828 61.1814 11.5918 61.2751 11.791C61.3689 11.9902 61.4861 12.1641 61.6267 12.3125C61.7673 12.4648 61.9333 12.5859 62.1248 12.6758C62.3162 12.7656 62.5388 12.8105 62.7927 12.8105C63.0466 12.8105 63.2693 12.7656 63.4607 12.6758C63.656 12.5859 63.824 12.4648 63.9646 12.3125C64.1013 12.1641 64.2146 11.9922 64.3044 11.7969C64.3982 11.5977 64.4744 11.3887 64.533 11.1699C64.5876 10.9551 64.6248 10.7363 64.6443 10.5137C64.6677 10.291 64.6814 10.0781 64.6853 9.875V8.89062Z" fill="#F5F5F5"/>
    <path d="M59.0071 11.082C58.9563 11.4766 58.8547 11.8398 58.7024 12.1719C58.55 12.5 58.3528 12.7812 58.1106 13.0156C57.8645 13.2539 57.5735 13.4395 57.2375 13.5723C56.9055 13.7012 56.5344 13.7656 56.1243 13.7656C55.7727 13.7656 55.4524 13.7168 55.1633 13.6191C54.8782 13.5176 54.6243 13.3789 54.4016 13.2031C54.175 13.0273 53.9797 12.8203 53.8157 12.582C53.6555 12.3438 53.5227 12.084 53.4172 11.8027C53.3079 11.5215 53.2258 11.2266 53.1711 10.918C53.1204 10.6094 53.093 10.2969 53.0891 9.98047V8.79102C53.093 8.47461 53.1204 8.16211 53.1711 7.85352C53.2258 7.54492 53.3079 7.25 53.4172 6.96875C53.5227 6.6875 53.6555 6.42773 53.8157 6.18945C53.9797 5.94727 54.175 5.73828 54.4016 5.5625C54.6243 5.38672 54.8782 5.25 55.1633 5.15234C55.4485 5.05078 55.7688 5 56.1243 5C56.55 5 56.9309 5.06641 57.2668 5.19922C57.6028 5.32812 57.8918 5.51172 58.134 5.75C58.3762 5.99219 58.5696 6.28125 58.7141 6.61719C58.8625 6.95312 58.9602 7.32422 59.0071 7.73047H57.9231C57.8879 7.47266 57.8274 7.23242 57.7415 7.00977C57.6555 6.78711 57.5403 6.5918 57.3958 6.42383C57.2512 6.25586 57.0735 6.125 56.8625 6.03125C56.6555 5.93359 56.4094 5.88477 56.1243 5.88477C55.8665 5.88477 55.6379 5.92773 55.4387 6.01367C55.2434 6.0957 55.0754 6.20898 54.9348 6.35352C54.7903 6.49805 54.6692 6.66602 54.5715 6.85742C54.4778 7.04883 54.4016 7.25195 54.343 7.4668C54.2844 7.68164 54.2415 7.90234 54.2141 8.12891C54.1907 8.35156 54.179 8.56836 54.179 8.7793V9.98047C54.179 10.1914 54.1907 10.4102 54.2141 10.6367C54.2415 10.8594 54.2844 11.0781 54.343 11.293C54.4016 11.5117 54.4778 11.7168 54.5715 11.9082C54.6653 12.0996 54.7844 12.2676 54.929 12.4121C55.0735 12.5605 55.2434 12.6777 55.4387 12.7637C55.634 12.8457 55.8625 12.8867 56.1243 12.8867C56.4094 12.8867 56.6555 12.8418 56.8625 12.752C57.0735 12.6621 57.2512 12.5352 57.3958 12.3711C57.5403 12.2109 57.6555 12.0215 57.7415 11.8027C57.8274 11.5801 57.8879 11.3398 57.9231 11.082H59.0071Z" fill="#F5F5F5"/>
    <path d="M45.7817 6.04297H43.145V13.6484H42.0903V6.04297H39.4536V5.11719H45.7817V6.04297Z" fill="#F5F5F5"/>
    <path d="M37.373 11.4395H34.5254L33.8398 13.6484H32.7559L35.5098 5.11719H36.418L39.125 13.6484H38.0469L37.373 11.4395ZM34.8184 10.4961H37.0859L35.9609 6.79297L34.8184 10.4961Z" fill="#F5F5F5"/>
    <path d="M32.3276 6.04297H29.6909V13.6484H28.6362V6.04297H25.9995V5.11719H32.3276V6.04297Z" fill="#F5F5F5"/>
    <path d="M25.2021 5.11719L25.2139 10.8945C25.2139 11.293 25.1436 11.666 25.0029 12.0137C24.8623 12.3613 24.6689 12.6641 24.4229 12.9219C24.1768 13.1836 23.8838 13.3906 23.5439 13.543C23.2041 13.6914 22.8311 13.7656 22.4248 13.7656C22.0107 13.7656 21.6338 13.6914 21.2939 13.543C20.9541 13.3945 20.6631 13.1895 20.4209 12.9277C20.1787 12.6699 19.9893 12.3672 19.8525 12.0195C19.7158 11.668 19.6455 11.293 19.6416 10.8945L19.6533 5.11719H20.6846L20.708 10.8945C20.7119 11.1484 20.751 11.3926 20.8252 11.627C20.9033 11.8613 21.0146 12.0684 21.1592 12.248C21.2998 12.4277 21.4756 12.5723 21.6865 12.6816C21.9014 12.791 22.1475 12.8457 22.4248 12.8457C22.7021 12.8457 22.9463 12.793 23.1572 12.6875C23.3682 12.5781 23.5459 12.4316 23.6904 12.248C23.8311 12.0684 23.9385 11.8613 24.0127 11.627C24.0869 11.3926 24.1279 11.1484 24.1357 10.8945L24.1533 5.11719H25.2021Z" fill="#F5F5F5"/>
    <path d="M13.1196 5.11719H18.2759V6.06055H16.231V12.7109H18.2759V13.6484H13.1196V12.7109H15.1177V6.06055H13.1196V5.11719Z" fill="#F5F5F5"/>
    <path d="M11.918 11.082C11.8672 11.4766 11.7656 11.8398 11.6133 12.1719C11.4609 12.5 11.2637 12.7812 11.0215 13.0156C10.7754 13.2539 10.4844 13.4395 10.1484 13.5723C9.81641 13.7012 9.44531 13.7656 9.03516 13.7656C8.68359 13.7656 8.36328 13.7168 8.07422 13.6191C7.78906 13.5176 7.53516 13.3789 7.3125 13.2031C7.08594 13.0273 6.89062 12.8203 6.72656 12.582C6.56641 12.3438 6.43359 12.084 6.32812 11.8027C6.21875 11.5215 6.13672 11.2266 6.08203 10.918C6.03125 10.6094 6.00391 10.2969 6 9.98047V8.79102C6.00391 8.47461 6.03125 8.16211 6.08203 7.85352C6.13672 7.54492 6.21875 7.25 6.32812 6.96875C6.43359 6.6875 6.56641 6.42773 6.72656 6.18945C6.89062 5.94727 7.08594 5.73828 7.3125 5.5625C7.53516 5.38672 7.78906 5.25 8.07422 5.15234C8.35938 5.05078 8.67969 5 9.03516 5C9.46094 5 9.8418 5.06641 10.1777 5.19922C10.5137 5.32812 10.8027 5.51172 11.0449 5.75C11.2871 5.99219 11.4805 6.28125 11.625 6.61719C11.7734 6.95312 11.8711 7.32422 11.918 7.73047H10.834C10.7988 7.47266 10.7383 7.23242 10.6523 7.00977C10.5664 6.78711 10.4512 6.5918 10.3066 6.42383C10.1621 6.25586 9.98438 6.125 9.77344 6.03125C9.56641 5.93359 9.32031 5.88477 9.03516 5.88477C8.77734 5.88477 8.54883 5.92773 8.34961 6.01367C8.1543 6.0957 7.98633 6.20898 7.8457 6.35352C7.70117 6.49805 7.58008 6.66602 7.48242 6.85742C7.38867 7.04883 7.3125 7.25195 7.25391 7.4668C7.19531 7.68164 7.15234 7.90234 7.125 8.12891C7.10156 8.35156 7.08984 8.56836 7.08984 8.7793V9.98047C7.08984 10.1914 7.10156 10.4102 7.125 10.6367C7.15234 10.8594 7.19531 11.0781 7.25391 11.293C7.3125 11.5117 7.38867 11.7168 7.48242 11.9082C7.57617 12.0996 7.69531 12.2676 7.83984 12.4121C7.98438 12.5605 8.1543 12.6777 8.34961 12.7637C8.54492 12.8457 8.77344 12.8867 9.03516 12.8867C9.32031 12.8867 9.56641 12.8418 9.77344 12.752C9.98438 12.6621 10.1621 12.5352 10.3066 12.3711C10.4512 12.2109 10.5664 12.0215 10.6523 11.8027C10.7383 11.5801 10.7988 11.3398 10.834 11.082H11.918Z" fill="#F5F5F5"/>
</svg>
