<svg width="548" height="294" viewBox="0 0 548 294" fill="none" xmlns="http://www.w3.org/2000/svg">
    <path d="M1 276L37 242.5L73 220.5L109 194L163.5 136.5L199.5 118.5L235.5 67L289 106L326 100L362 88L397.5 76L452 61L470 52L488 43L506 37L524 21.5L543 6" stroke="#1D1D1B" stroke-width="2"/>
    <path d="M1 275.5L36.5 255.5L72.5 245.5L108.5 233L162 214L199.5 209.5L235.5 190L289.5 200.5L326.5 198.5L361 193.5L397.5 174L451.5 164L469.5 150L488 139.5L506 40L523.5 28.5L542 6" stroke="#1D1D1B" stroke-width="2"/>
    <path d="M1 281L37 270.5L73 258.5L109 239L163 204L199 172L235 138L290 152L326 176L362 158L398 119L452 93L470 106.5L488 75L506 43L524 26L542.5 13" stroke="#1D1D1B" stroke-width="2"/>
    <path d="M2 292.5L38 263L74.5 234L111 203.5L165.5 164.5L202 146.5L238 116L292.5 131L329 148.5L365 131L401 103.5L455.5 74.5L474 59.5L492.5 46L510 24.5L528.5 13.5L546.5 1" stroke="#1D1D1B" stroke-width="2"/>
</svg>
